<?xml version="1.0" encoding="UTF-8"?><svg id="Calque_1" xmlns="http://www.w3.org/2000/svg" viewBox="0 0 281.74 121.69"><defs><style>.cls-1{fill:#14120e;}.cls-1,.cls-2,.cls-3,.cls-4{stroke-width:0px;}.cls-2{fill:#26231e;}.cls-3{fill:#13110c;}.cls-4{fill:#000;}</style></defs><polygon class="cls-1" points="157.77 0 132.43 0 81.77 50.66 81.77 71.17 132.43 71.17 132.43 96.5 157.77 96.5 157.77 50.66 107.1 50.66 157.77 0"/><polygon class="cls-1" points="168.62 25.33 193.96 0 168.62 0 168.62 25.33"/><polygon class="cls-1" points="219.29 25.33 219.29 0 193.96 0 193.96 25.33 168.62 50.66 168.62 76 193.96 76 193.96 50.66 219.29 25.33"/><polygon class="cls-1" points="219.29 50.66 193.96 76 219.29 76 219.29 50.66"/><rect class="cls-2" x="168.62" y="96.5" width="2" height="25.19"/><path class="cls-3" d="M184.4,101.46l-1.32,10.74h4.16l-.32,2.6h-7.24l1.64-13.34h3.08Z"/><path class="cls-3" d="M197.31,112.28h-5.04l-1.26,2.52h-3.32l7.04-13.34h2.84l3.58,13.34h-3.16l-.68-2.52ZM196.75,109.92l-1.08-4.7-2.24,4.7h3.32Z"/><path class="cls-3" d="M206.86,101.46l-.88,7.28c-.06.42-.1.6-.1,1.16s.08,1.22.58,1.72c.36.34.94.6,1.76.6,1,0,1.62-.32,1.96-.66.66-.66.8-1.78.9-2.54l.92-7.56h3.08l-.96,7.76c-.2,1.6-.38,3.22-1.58,4.44-1.34,1.38-3.28,1.44-4.38,1.44-1.32,0-3-.16-4.22-1.38-.84-.82-1.18-1.84-1.18-3.08,0-.6.1-1.56.16-2.1l.86-7.08h3.08Z"/><path class="cls-3" d="M224.51,104.72c-.84-.76-1.64-.96-2.24-.96-.38,0-.92.06-1.26.34-.28.22-.46.6-.46.96,0,.4.18.68.46.9.28.24.64.4,1.3.7l.78.36c.64.3,1.24.64,1.76,1.28.48.6.68,1.22.68,2.08,0,1.4-.56,2.64-1.34,3.42-1.08,1.06-2.46,1.3-3.82,1.3-.98,0-1.76-.12-2.66-.6-.66-.36-1.3-.9-1.78-1.42l1.72-2.2c.28.38.72.8,1.12,1.06.42.26.98.44,1.56.44.46,0,1.1-.14,1.48-.42.36-.28.56-.74.56-1.24s-.22-.76-.38-.92c-.1-.1-.36-.32-1.06-.6l-.78-.32c-.22-.08-1.24-.52-1.88-1.18-.64-.66-.88-1.42-.88-2.26,0-1.38.56-2.38,1.2-3.02,1.08-1.06,2.46-1.26,3.6-1.26s2.46.22,3.86,1.32l-1.54,2.24Z"/><path class="cls-3" d="M235.63,112.28h-5.04l-1.26,2.52h-3.32l7.04-13.34h2.84l3.58,13.34h-3.16l-.68-2.52ZM235.07,109.92l-1.08-4.7-2.24,4.7h3.32Z"/><path class="cls-3" d="M240.9,114.8l1.66-13.34h2.68l6.14,8.68,1.08-8.68h3.08l-1.64,13.34h-2.68l-6.18-8.72-1.06,8.72h-3.08Z"/><path class="cls-3" d="M256.82,114.8l1.66-13.34h2.68l6.14,8.68,1.08-8.68h3.08l-1.64,13.34h-2.68l-6.18-8.72-1.06,8.72h-3.08Z"/><path class="cls-3" d="M281.42,104.06h-4.36l-.32,2.58h4.2l-.32,2.6h-4.2l-.36,2.96h4.44l-.32,2.6h-7.44l1.64-13.34h7.36l-.32,2.6Z"/><polyline class="cls-4" points="48.03 .03 70.91 .03 70.91 82.92 32.26 121.56 0 105.54 0 71.67 17.96 71.67 17.96 92.7 35.46 100.36 45.37 90.51 45.37 0 70.91 .03"/></svg>